<svg width="54" height="53" viewBox="0 0 54 53" fill="none" xmlns="http://www.w3.org/2000/svg">
<path d="M26.8868 50C40.026 50 50.7736 39.5313 50.7736 26.5C50.7736 13.4687 40.026 3 26.8868 3C13.7476 3 3 13.4687 3 26.5C3 39.5313 13.7476 50 26.8868 50Z" fill="white" stroke="#40792F" stroke-width="6"/>
<path d="M23.9777 31.0227V30.6364C23.9853 29.3106 24.1027 28.2538 24.33 27.4659C24.5648 26.678 24.9057 26.0417 25.3527 25.5568C25.7997 25.072 26.3376 24.6326 26.9663 24.2386C27.436 23.9356 27.8565 23.6212 28.2277 23.2955C28.5989 22.9697 28.8944 22.6098 29.1141 22.2159C29.3338 21.8144 29.4436 21.3674 29.4436 20.875C29.4436 20.3523 29.3186 19.8939 29.0686 19.5C28.8186 19.1061 28.4815 18.803 28.0572 18.5909C27.6406 18.3788 27.1785 18.2727 26.6709 18.2727C26.1785 18.2727 25.7126 18.3826 25.2732 18.6023C24.8338 18.8144 24.4739 19.1326 24.1936 19.5568C23.9133 19.9735 23.7618 20.4924 23.7391 21.1136H19.1027C19.1406 19.5985 19.5042 18.3485 20.1936 17.3636C20.883 16.3712 21.7959 15.6326 22.9322 15.1477C24.0686 14.6553 25.3224 14.4091 26.6936 14.4091C28.2012 14.4091 29.5345 14.6591 30.6936 15.1591C31.8527 15.6515 32.7618 16.3674 33.4209 17.3068C34.08 18.2462 34.4095 19.3788 34.4095 20.7045C34.4095 21.5909 34.2618 22.3788 33.9663 23.0682C33.6785 23.75 33.2732 24.3561 32.7504 24.8864C32.2277 25.4091 31.6103 25.8826 30.8982 26.3068C30.2997 26.6629 29.8072 27.0341 29.4209 27.4205C29.0421 27.8068 28.758 28.2538 28.5686 28.7614C28.3868 29.2689 28.2921 29.8939 28.2845 30.6364V31.0227H23.9777ZM26.2277 38.2955C25.4701 38.2955 24.8224 38.0303 24.2845 37.5C23.7542 36.9621 23.4929 36.3182 23.5004 35.5682C23.4929 34.8258 23.7542 34.1894 24.2845 33.6591C24.8224 33.1288 25.4701 32.8636 26.2277 32.8636C26.9474 32.8636 27.58 33.1288 28.1254 33.6591C28.6709 34.1894 28.9474 34.8258 28.955 35.5682C28.9474 36.0682 28.8148 36.5265 28.5572 36.9432C28.3072 37.3523 27.9777 37.6818 27.5686 37.9318C27.1595 38.1742 26.7126 38.2955 26.2277 38.2955Z" fill="#40792F"/>
</svg>
